<svg width="11" height="10" viewBox="0 0 11 10" fill="none" xmlns="http://www.w3.org/2000/svg">
<g clip-path="url(#clip0)">
<path d="M4.6413 4.50755C4.81403 4.23814 4.91265 3.91673 4.90695 3.57212C4.89167 2.64998 4.12584 1.91718 3.20546 1.91718H0.635906C0.515553 1.91718 0.417969 2.01496 0.417969 2.13557V7.7981C0.417969 7.91871 0.515553 8.01649 0.635906 8.01649H3.50621C4.57153 8.01649 5.45402 7.16086 5.45837 6.09331C5.46105 5.43905 5.13727 4.859 4.6413 4.50755ZM1.54525 3.0468H3.22741C3.53204 3.0468 3.77991 3.29517 3.77991 3.60046C3.77991 3.90573 3.53207 4.15412 3.22741 4.15412H1.54525V3.0468ZM3.53124 6.88687H1.54525V5.28374H3.22741H3.53122C3.97227 5.28374 4.33111 5.64333 4.33111 6.0853C4.33111 6.52728 3.97229 6.88687 3.53124 6.88687Z" fill="white" fill-opacity="0.4"/>
<path d="M10.3973 5.6918C10.3973 4.37327 9.3602 3.3006 8.08547 3.3006C6.81073 3.3006 5.77368 4.37329 5.77368 5.6918C5.77368 7.0103 6.81076 8.08302 8.08547 8.08302C8.85896 8.08302 9.57768 7.68567 10.0081 7.0201C10.0617 6.93712 10.1105 6.85041 10.1537 6.76105C10.1851 6.69617 10.1375 6.62068 10.0655 6.62051L8.92912 6.61767C8.90398 6.6176 8.88014 6.6279 8.86212 6.64546C8.64753 6.85454 8.38445 6.95337 8.08547 6.95337C7.52071 6.95337 7.04728 6.53009 6.92943 5.96581H10.171C10.296 5.96581 10.3973 5.86432 10.3973 5.73911V5.6918ZM8.08547 4.43022C8.4991 4.43022 8.86366 4.65736 9.07559 5.00052H7.09537C7.30728 4.65736 7.67186 4.43022 8.08547 4.43022Z" fill="white" fill-opacity="0.4"/>
<path d="M9.04594 3.01992H6.99549C6.89982 3.01992 6.82227 2.9422 6.82227 2.84634V2.33087C6.82227 2.23501 6.89982 2.15729 6.99549 2.15729H9.04594C9.1416 2.15729 9.21916 2.23501 9.21916 2.33087V2.84634C9.21916 2.94222 9.1416 3.01992 9.04594 3.01992Z" fill="white" fill-opacity="0.4"/>
</g>
<defs>
<clipPath id="clip0">
<rect x="0.417969" width="9.97921" height="10" fill="white"/>
</clipPath>
</defs>
</svg>
