<svg width="11" height="10" viewBox="0 0 11 10" fill="none" xmlns="http://www.w3.org/2000/svg">
<path d="M8.06802 0.00208067L6.77396 0C5.32012 0 4.38058 0.96595 4.38058 2.46101V3.59571H3.07946C2.96702 3.59571 2.87598 3.68705 2.87598 3.79971V5.44375C2.87598 5.55642 2.96713 5.64766 3.07946 5.64766H4.38058V9.79609C4.38058 9.90876 4.47163 10 4.58406 10H6.28166C6.39409 10 6.48514 9.90866 6.48514 9.79609V5.64766H8.00646C8.1189 5.64766 8.20994 5.55642 8.20994 5.44375L8.21056 3.79971C8.21056 3.74562 8.18907 3.69381 8.15097 3.65552C8.11287 3.61724 8.06097 3.59571 8.00698 3.59571H6.48514V2.63381C6.48514 2.17149 6.59508 1.93679 7.19607 1.93679L8.06782 1.93648C8.18015 1.93648 8.27119 1.84514 8.27119 1.73257V0.205986C8.27119 0.093526 8.18025 0.00228873 8.06802 0.00208067Z" fill="white" fill-opacity="0.4"/>
</svg>
