<svg width="11" height="10" viewBox="0 0 11 10" fill="none" xmlns="http://www.w3.org/2000/svg">
<g clip-path="url(#clip0)">
<path d="M2.73258 3.125H0.500977V10H2.73258V3.125Z" fill="white" fill-opacity="0.4"/>
<path d="M8.81131 3.20563C8.78761 3.19813 8.76516 3.19 8.74021 3.18312C8.71027 3.17625 8.68033 3.17063 8.64977 3.16563C8.53127 3.14188 8.40154 3.125 8.24936 3.125C6.94832 3.125 6.12316 4.07313 5.85123 4.43938V3.125H3.61963V10H5.85123V6.25C5.85123 6.25 7.53772 3.89625 8.24936 5.625C8.24936 7.16813 8.24936 10 8.24936 10H10.4803V5.36062C10.4803 4.32187 9.76994 3.45625 8.81131 3.20563Z" fill="white" fill-opacity="0.4"/>
<path d="M1.59245 2.1875C2.19526 2.1875 2.68393 1.69781 2.68393 1.09375C2.68393 0.489689 2.19526 0 1.59245 0C0.989647 0 0.500977 0.489689 0.500977 1.09375C0.500977 1.69781 0.989647 2.1875 1.59245 2.1875Z" fill="white" fill-opacity="0.4"/>
</g>
<defs>
<clipPath id="clip0">
<rect x="0.500977" width="9.97921" height="10" fill="white"/>
</clipPath>
</defs>
</svg>
