<svg width="442" height="15" viewBox="0 0 442 15" fill="none" xmlns="http://www.w3.org/2000/svg">
<path d="M0.256836 0.675781H5.80273C6.39453 0.675781 6.93945 0.754883 7.4375 0.913086C7.94141 1.06543 8.375 1.29395 8.73828 1.59863C9.10742 1.89746 9.39453 2.27246 9.59961 2.72363C9.80469 3.1748 9.90723 3.69336 9.90723 4.2793C9.90723 4.61328 9.8457 4.94434 9.72266 5.27246C9.60547 5.59473 9.43848 5.89648 9.22168 6.17773C9.01074 6.45312 8.75879 6.69922 8.46582 6.91602C8.17285 7.13281 7.85352 7.2998 7.50781 7.41699C7.6543 7.48145 7.80078 7.5752 7.94727 7.69824C8.09961 7.81543 8.24023 7.96191 8.36914 8.1377C8.50391 8.30762 8.62402 8.50391 8.72949 8.72656C8.84082 8.94336 8.92871 9.17773 8.99316 9.42969L9.73145 12.3301H10.8828L10.9004 14H8.30762L7.31445 9.94824C7.13281 9.22168 6.85449 8.68848 6.47949 8.34863C6.11035 8.00293 5.60352 7.83008 4.95898 7.83008H3.24512V12.4883H4.58105V14H0.256836V12.4883H1.52246V2.19629H0.256836V0.675781ZM3.24512 2.19629V6.38867H5.80273C6.13672 6.38867 6.44141 6.34473 6.7168 6.25684C6.99805 6.16895 7.23828 6.03711 7.4375 5.86133C7.64258 5.68555 7.80078 5.46875 7.91211 5.21094C8.0293 4.94727 8.08789 4.64258 8.08789 4.29688C8.08789 3.63477 7.88867 3.11914 7.49023 2.75C7.0918 2.38086 6.45898 2.19629 5.5918 2.19629H3.24512ZM22.2151 12.4883H23.3225L22.2678 9.46484H17.1438L16.1155 12.4883H17.4866V14H13.1623V12.4883H14.3225L18.4709 0.675781H21.0637L25.2034 12.4883H26.5393V14H22.2151V12.4883ZM17.6448 8.00586H21.758L19.6838 2.04688L17.6448 8.00586ZM38.6011 4.19141C38.2085 3.52344 37.687 2.99902 37.0366 2.61816C36.3921 2.2373 35.6714 2.04688 34.8745 2.04688C34.1948 2.04688 33.5737 2.19043 33.0112 2.47754C32.4487 2.76465 31.9653 3.15137 31.561 3.6377C31.1626 4.11816 30.852 4.67773 30.6294 5.31641C30.4067 5.94922 30.2954 6.61719 30.2954 7.32031C30.2954 8.15234 30.4184 8.89062 30.6645 9.53516C30.9106 10.1738 31.23 10.707 31.6225 11.1348C32.021 11.5566 32.4927 11.9111 33.0376 12.1982C33.5825 12.4795 34.1948 12.6201 34.8745 12.6201C35.8003 12.6201 36.6059 12.3975 37.2915 11.9521C37.977 11.501 38.563 10.7627 39.0493 9.7373L40.5962 10.4668C40.3735 11.0996 39.9956 11.7119 39.4624 12.3037C38.9292 12.8896 38.27 13.3643 37.4848 13.7275C36.7055 14.085 35.8413 14.2637 34.8921 14.2637C33.9839 14.2637 33.1489 14.0938 32.3872 13.7539C31.6255 13.4082 30.9458 12.9189 30.3481 12.2861C29.7563 11.6533 29.3022 10.9033 28.9858 10.0361C28.6753 9.16895 28.52 8.26367 28.52 7.32031C28.52 6.37109 28.6753 5.47461 28.9858 4.63086C29.3022 3.78711 29.7417 3.05469 30.3042 2.43359C30.8725 1.80664 31.5464 1.31445 32.3257 0.957031C33.1108 0.59375 33.9604 0.412109 34.8745 0.412109C35.6889 0.412109 36.3921 0.529297 36.9839 0.763672C37.5757 0.992188 38.0766 1.26758 38.4868 1.58984C38.9028 1.90625 39.2602 2.25195 39.5591 2.62695H40.4907V4.19141H38.6011ZM53.1325 4.19141C52.74 3.52344 52.2185 2.99902 51.5681 2.61816C50.9236 2.2373 50.2029 2.04688 49.406 2.04688C48.7263 2.04688 48.1052 2.19043 47.5427 2.47754C46.9802 2.76465 46.4968 3.15137 46.0925 3.6377C45.6941 4.11816 45.3835 4.67773 45.1609 5.31641C44.9382 5.94922 44.8269 6.61719 44.8269 7.32031C44.8269 8.15234 44.9499 8.89062 45.196 9.53516C45.4421 10.1738 45.7614 10.707 46.154 11.1348C46.5525 11.5566 47.0241 11.9111 47.5691 12.1982C48.114 12.4795 48.7263 12.6201 49.406 12.6201C50.3318 12.6201 51.1374 12.3975 51.823 11.9521C52.5085 11.501 53.0945 10.7627 53.5808 9.7373L55.1277 10.4668C54.905 11.0996 54.5271 11.7119 53.9939 12.3037C53.4607 12.8896 52.8015 13.3643 52.0163 13.7275C51.237 14.085 50.3728 14.2637 49.4236 14.2637C48.5154 14.2637 47.6804 14.0938 46.9187 13.7539C46.157 13.4082 45.4773 12.9189 44.8796 12.2861C44.2878 11.6533 43.8337 10.9033 43.5173 10.0361C43.2068 9.16895 43.0515 8.26367 43.0515 7.32031C43.0515 6.37109 43.2068 5.47461 43.5173 4.63086C43.8337 3.78711 44.2732 3.05469 44.8357 2.43359C45.404 1.80664 46.0779 1.31445 46.8571 0.957031C47.6423 0.59375 48.4919 0.412109 49.406 0.412109C50.2204 0.412109 50.9236 0.529297 51.5154 0.763672C52.1071 0.992188 52.6081 1.26758 53.0183 1.58984C53.4343 1.90625 53.7917 2.25195 54.0905 2.62695H55.0222V4.19141H53.1325ZM63.9726 14.2637C63.0527 14.2637 62.2119 14.0938 61.4502 13.7539C60.6884 13.4082 60.0088 12.9189 59.4111 12.2861C58.8134 11.6533 58.3593 10.9033 58.0488 10.0361C57.7382 9.16895 57.583 8.26953 57.583 7.33789C57.583 6.37695 57.7382 5.47461 58.0488 4.63086C58.3652 3.78711 58.8046 3.05469 59.3671 2.43359C59.9355 1.80664 60.6093 1.31445 61.3886 0.957031C62.1738 0.59375 63.0351 0.412109 63.9726 0.412109C64.916 0.412109 65.7802 0.59375 66.5654 0.957031C67.3505 1.31445 68.0244 1.80664 68.5869 2.43359C69.1494 3.05469 69.5859 3.78711 69.8964 4.63086C70.207 5.47461 70.3623 6.37695 70.3623 7.33789C70.3623 8.29883 70.2041 9.20117 69.8877 10.0449C69.5771 10.8828 69.1377 11.6152 68.5693 12.2422C68.0068 12.8691 67.333 13.3643 66.5478 13.7275C65.7685 14.085 64.9101 14.2637 63.9726 14.2637ZM63.9726 12.6289C64.6699 12.6289 65.2998 12.4854 65.8623 12.1982C66.4306 11.9111 66.914 11.5273 67.3125 11.0469C67.7109 10.5605 68.0185 9.99805 68.2353 9.35938C68.4521 8.7207 68.5605 8.04688 68.5605 7.33789C68.5605 6.61133 68.4404 5.91113 68.2002 5.2373C67.9658 4.55762 67.6347 3.9834 67.207 3.51465C66.7851 3.0459 66.2929 2.68555 65.7304 2.43359C65.1679 2.17578 64.582 2.04688 63.9726 2.04688C63.2754 2.04688 62.6425 2.19043 62.0742 2.47754C61.5058 2.76465 61.0224 3.15137 60.624 3.6377C60.2255 4.11816 59.9179 4.68066 59.7011 5.3252C59.4843 5.96387 59.3759 6.63477 59.3759 7.33789C59.3759 8.1582 59.4961 8.89062 59.7363 9.53516C59.9765 10.1738 60.2929 10.707 60.6855 11.1348C61.0839 11.5566 61.5556 11.9111 62.1005 12.1982C62.6513 12.4854 63.2754 12.6289 63.9726 12.6289ZM79.2775 14.2637C78.3576 14.2637 77.5168 14.0938 76.7551 13.7539C75.9934 13.4082 75.3137 12.9189 74.716 12.2861C74.1184 11.6533 73.6643 10.9033 73.3537 10.0361C73.0432 9.16895 72.8879 8.26953 72.8879 7.33789C72.8879 6.37695 73.0432 5.47461 73.3537 4.63086C73.6701 3.78711 74.1096 3.05469 74.6721 2.43359C75.2404 1.80664 75.9143 1.31445 76.6936 0.957031C77.4787 0.59375 78.34 0.412109 79.2775 0.412109C80.2209 0.412109 81.0852 0.59375 81.8703 0.957031C82.6555 1.31445 83.3293 1.80664 83.8918 2.43359C84.4543 3.05469 84.8908 3.78711 85.2014 4.63086C85.5119 5.47461 85.6672 6.37695 85.6672 7.33789C85.6672 8.29883 85.509 9.20117 85.1926 10.0449C84.882 10.8828 84.4426 11.6152 83.8742 12.2422C83.3117 12.8691 82.6379 13.3643 81.8527 13.7275C81.0734 14.085 80.215 14.2637 79.2775 14.2637ZM79.2775 12.6289C79.9748 12.6289 80.6047 12.4854 81.1672 12.1982C81.7355 11.9111 82.2189 11.5273 82.6174 11.0469C83.0158 10.5605 83.3234 9.99805 83.5402 9.35938C83.757 8.7207 83.8654 8.04688 83.8654 7.33789C83.8654 6.61133 83.7453 5.91113 83.5051 5.2373C83.2707 4.55762 82.9397 3.9834 82.5119 3.51465C82.09 3.0459 81.5979 2.68555 81.0354 2.43359C80.4729 2.17578 79.8869 2.04688 79.2775 2.04688C78.5803 2.04688 77.9475 2.19043 77.3791 2.47754C76.8107 2.76465 76.3273 3.15137 75.9289 3.6377C75.5305 4.11816 75.2229 4.68066 75.0061 5.3252C74.7893 5.96387 74.6809 6.63477 74.6809 7.33789C74.6809 8.1582 74.801 8.89062 75.0412 9.53516C75.2814 10.1738 75.5979 10.707 75.9904 11.1348C76.3889 11.5566 76.8605 11.9111 77.4055 12.1982C77.9563 12.4854 78.5803 12.6289 79.2775 12.6289ZM97.061 0.675781H101.385V2.19629H100.251V14H98.0014L91.8051 2.95215V12.4883H93.1762V14H88.852V12.4883H90.0825V2.19629H88.8168V0.658203H92.4028L98.4848 11.6006L98.5551 11.1787V2.19629H97.061V0.675781ZM150.936 0.675781H155.26V2.19629H154.1L150.295 14H147.605L143.993 2.38965L140.662 14H137.999L134.114 2.19629H132.936V0.675781H137.26V2.19629H136.1L139.326 12.4355L142.727 0.675781H145.355L148.976 12.4355L152.263 2.19629H150.936V0.675781ZM157.865 0.675781H167.41V4.44629H165.608V2.19629H160.853V6.45898H164.852V7.9707H160.853V12.4883H165.608V10.2383H167.41V14H157.865V12.4883H159.131V2.19629H157.865V0.675781ZM170.428 12.4883H171.693V2.19629H170.428V0.658203L176.422 0.675781C176.961 0.675781 177.468 0.77832 177.943 0.983398C178.417 1.18262 178.83 1.45801 179.182 1.80957C179.533 2.15527 179.809 2.56543 180.008 3.04004C180.213 3.51465 180.316 4.02441 180.316 4.56934C180.316 5.1377 180.157 5.65625 179.841 6.125C179.525 6.59375 179.073 6.96875 178.487 7.25C178.775 7.40234 179.035 7.58105 179.27 7.78613C179.504 7.98535 179.703 8.20508 179.867 8.44531C180.031 8.68555 180.157 8.94043 180.245 9.20996C180.339 9.47949 180.386 9.75488 180.386 10.0361C180.386 10.5928 180.283 11.1113 180.078 11.5918C179.879 12.0723 179.604 12.4912 179.252 12.8486C178.901 13.2061 178.487 13.4873 178.013 13.6924C177.544 13.8975 177.04 14 176.501 14H170.428V12.4883ZM173.416 8.07617V12.4883H176.519C176.8 12.4883 177.061 12.418 177.301 12.2773C177.541 12.1367 177.752 11.9551 177.934 11.7324C178.115 11.5039 178.256 11.2461 178.356 10.959C178.461 10.6719 178.514 10.3789 178.514 10.0801C178.514 9.82227 178.461 9.57324 178.356 9.33301C178.25 9.09277 178.107 8.87891 177.925 8.69141C177.749 8.50391 177.538 8.35449 177.292 8.24316C177.052 8.13184 176.794 8.07617 176.519 8.07617H173.416ZM173.416 2.19629V6.54688H176.44C176.721 6.54688 176.982 6.49121 177.222 6.37988C177.468 6.26855 177.679 6.11914 177.855 5.93164C178.036 5.74414 178.18 5.52734 178.285 5.28125C178.391 5.03516 178.443 4.78027 178.443 4.5166C178.443 4.22949 178.391 3.94824 178.285 3.67285C178.18 3.3916 178.036 3.14258 177.855 2.92578C177.673 2.70898 177.459 2.5332 177.213 2.39844C176.973 2.26367 176.715 2.19629 176.44 2.19629H173.416ZM188.768 12.4883H190.034V2.35449H188.768V0.675781H192.987L197.214 12.1807L201.495 0.675781H205.494V2.35449H204.237V12.4883H205.494V14H201.17V12.4883H202.593V2.25781L197.935 14H196.441L191.721 2.23145V12.4883H193.092V14H188.768V12.4883ZM215.042 14.2637C214.122 14.2637 213.281 14.0938 212.519 13.7539C211.758 13.4082 211.078 12.9189 210.48 12.2861C209.883 11.6533 209.429 10.9033 209.118 10.0361C208.807 9.16895 208.652 8.26953 208.652 7.33789C208.652 6.37695 208.807 5.47461 209.118 4.63086C209.434 3.78711 209.874 3.05469 210.436 2.43359C211.005 1.80664 211.679 1.31445 212.458 0.957031C213.243 0.59375 214.104 0.412109 215.042 0.412109C215.985 0.412109 216.849 0.59375 217.635 0.957031C218.42 1.31445 219.094 1.80664 219.656 2.43359C220.219 3.05469 220.655 3.78711 220.966 4.63086C221.276 5.47461 221.431 6.37695 221.431 7.33789C221.431 8.29883 221.273 9.20117 220.957 10.0449C220.646 10.8828 220.207 11.6152 219.639 12.2422C219.076 12.8691 218.402 13.3643 217.617 13.7275C216.838 14.085 215.979 14.2637 215.042 14.2637ZM215.042 12.6289C215.739 12.6289 216.369 12.4854 216.931 12.1982C217.5 11.9111 217.983 11.5273 218.382 11.0469C218.78 10.5605 219.088 9.99805 219.305 9.35938C219.521 8.7207 219.63 8.04688 219.63 7.33789C219.63 6.61133 219.51 5.91113 219.269 5.2373C219.035 4.55762 218.704 3.9834 218.276 3.51465C217.854 3.0459 217.362 2.68555 216.8 2.43359C216.237 2.17578 215.651 2.04688 215.042 2.04688C214.345 2.04688 213.712 2.19043 213.143 2.47754C212.575 2.76465 212.092 3.15137 211.693 3.6377C211.295 4.11816 210.987 4.68066 210.77 5.3252C210.554 5.96387 210.445 6.63477 210.445 7.33789C210.445 8.1582 210.565 8.89062 210.806 9.53516C211.046 10.1738 211.362 10.707 211.755 11.1348C212.153 11.5566 212.625 11.9111 213.17 12.1982C213.721 12.4854 214.345 12.6289 215.042 12.6289ZM227.306 12.4883H228.527V2.11719H225.486V4.19141H223.685V0.675781H235.567V4.19141H233.766V2.11719H230.25V12.4883H231.621V14H227.306V12.4883ZM238.445 0.675781H242.699V2.19629H241.433V12.4883H242.699V14H238.445V12.4883H239.71V2.19629H238.445V0.675781ZM252.238 14.2637C251.318 14.2637 250.477 14.0938 249.715 13.7539C248.954 13.4082 248.274 12.9189 247.676 12.2861C247.079 11.6533 246.625 10.9033 246.314 10.0361C246.003 9.16895 245.848 8.26953 245.848 7.33789C245.848 6.37695 246.003 5.47461 246.314 4.63086C246.63 3.78711 247.07 3.05469 247.632 2.43359C248.201 1.80664 248.875 1.31445 249.654 0.957031C250.439 0.59375 251.3 0.412109 252.238 0.412109C253.181 0.412109 254.045 0.59375 254.831 0.957031C255.616 1.31445 256.29 1.80664 256.852 2.43359C257.415 3.05469 257.851 3.78711 258.162 4.63086C258.472 5.47461 258.628 6.37695 258.628 7.33789C258.628 8.29883 258.469 9.20117 258.153 10.0449C257.842 10.8828 257.403 11.6152 256.835 12.2422C256.272 12.8691 255.598 13.3643 254.813 13.7275C254.034 14.085 253.175 14.2637 252.238 14.2637ZM252.238 12.6289C252.935 12.6289 253.565 12.4854 254.128 12.1982C254.696 11.9111 255.179 11.5273 255.578 11.0469C255.976 10.5605 256.284 9.99805 256.501 9.35938C256.717 8.7207 256.826 8.04688 256.826 7.33789C256.826 6.61133 256.706 5.91113 256.465 5.2373C256.231 4.55762 255.9 3.9834 255.472 3.51465C255.05 3.0459 254.558 2.68555 253.996 2.43359C253.433 2.17578 252.847 2.04688 252.238 2.04688C251.541 2.04688 250.908 2.19043 250.339 2.47754C249.771 2.76465 249.288 3.15137 248.889 3.6377C248.491 4.11816 248.183 4.68066 247.966 5.3252C247.75 5.96387 247.641 6.63477 247.641 7.33789C247.641 8.1582 247.761 8.89062 248.002 9.53516C248.242 10.1738 248.558 10.707 248.951 11.1348C249.349 11.5566 249.821 11.9111 250.366 12.1982C250.917 12.4854 251.541 12.6289 252.238 12.6289ZM270.021 0.675781H274.346V2.19629H273.212V14H270.962L264.765 2.95215V12.4883H266.137V14H261.812V12.4883H263.043V2.19629H261.777V0.658203H265.363L271.445 11.6006L271.515 11.1787V2.19629H270.021V0.675781ZM282.508 0.675781H287.465C288.074 0.675781 288.655 0.754883 289.205 0.913086C289.756 1.07129 290.269 1.29395 290.743 1.58105C291.218 1.86816 291.649 2.21387 292.035 2.61816C292.422 3.0166 292.75 3.46191 293.02 3.9541C293.295 4.44629 293.506 4.97656 293.653 5.54492C293.799 6.10742 293.872 6.69336 293.872 7.30273C293.872 7.92383 293.799 8.51855 293.653 9.08691C293.506 9.65527 293.295 10.1885 293.02 10.6865C292.75 11.1846 292.422 11.6387 292.035 12.0488C291.649 12.4531 291.218 12.8018 290.743 13.0947C290.269 13.3818 289.756 13.6045 289.205 13.7627C288.655 13.9209 288.074 14 287.465 14H282.508V12.4883H283.774V2.19629H282.508V0.675781ZM285.496 2.19629V12.4883H287.571C288.186 12.4883 288.763 12.3535 289.302 12.084C289.847 11.8145 290.322 11.4482 290.726 10.9854C291.13 10.5166 291.449 9.96875 291.684 9.3418C291.918 8.70898 292.035 8.0293 292.035 7.30273C292.035 6.58789 291.918 5.91992 291.684 5.29883C291.449 4.67773 291.13 4.13867 290.726 3.68164C290.322 3.21875 289.847 2.85547 289.302 2.5918C288.763 2.32812 288.186 2.19629 287.571 2.19629H285.496ZM297.022 0.675781H306.567V4.44629H304.765V2.19629H300.01V6.45898H304.009V7.9707H300.01V12.4883H304.765V10.2383H306.567V14H297.022V12.4883H298.288V2.19629H297.022V0.675781ZM316.414 4.29688C316.414 3.78125 316.32 3.39453 316.133 3.13672C315.945 2.87891 315.737 2.68262 315.509 2.54785C315.286 2.40723 315.04 2.30176 314.77 2.23145C314.501 2.15527 314.231 2.11719 313.962 2.11719C313.516 2.11719 313.127 2.16992 312.793 2.27539C312.459 2.375 312.18 2.5127 311.958 2.68848C311.741 2.86426 311.577 3.06934 311.466 3.30371C311.354 3.53809 311.299 3.78418 311.299 4.04199C311.299 4.42871 311.366 4.74219 311.501 4.98242C311.641 5.2168 311.817 5.40723 312.028 5.55371C312.239 5.69434 312.47 5.80566 312.722 5.8877C312.98 5.96973 313.226 6.05176 313.461 6.13379L315.236 6.71387C315.769 6.88379 316.238 7.07715 316.642 7.29395C317.052 7.51074 317.395 7.76855 317.671 8.06738C317.946 8.36035 318.154 8.7002 318.295 9.08691C318.441 9.47363 318.514 9.92188 318.514 10.4316C318.514 10.9824 318.4 11.4922 318.172 11.9609C317.949 12.4297 317.635 12.8369 317.231 13.1826C316.827 13.5283 316.344 13.8008 315.781 14C315.224 14.1934 314.612 14.29 313.944 14.29C313.259 14.29 312.673 14.2109 312.186 14.0527C311.7 13.9004 311.29 13.6953 310.956 13.4375C310.628 13.1738 310.364 12.875 310.165 12.541C309.966 12.207 309.81 11.8643 309.699 11.5127H309.031V10.001H311.246C311.246 10.6514 311.313 11.1113 311.448 11.3809C311.589 11.6504 311.782 11.876 312.028 12.0576C312.274 12.2334 312.567 12.3682 312.907 12.4619C313.247 12.5498 313.622 12.5938 314.032 12.5938C314.43 12.5938 314.788 12.5469 315.104 12.4531C315.427 12.3594 315.699 12.2246 315.922 12.0488C316.15 11.8672 316.323 11.6504 316.44 11.3984C316.563 11.1406 316.625 10.8506 316.625 10.5283C316.625 10.1709 316.549 9.86914 316.396 9.62305C316.25 9.37109 316.059 9.15723 315.825 8.98145C315.591 8.80566 315.333 8.66211 315.052 8.55078C314.776 8.43945 314.51 8.34277 314.252 8.26074L312.327 7.71582C311.905 7.58691 311.518 7.42285 311.167 7.22363C310.821 7.02441 310.522 6.78125 310.27 6.49414C310.024 6.20703 309.834 5.87305 309.699 5.49219C309.564 5.10547 309.497 4.66016 309.497 4.15625C309.497 3.64648 309.596 3.16895 309.796 2.72363C309.995 2.27832 310.288 1.88867 310.675 1.55469C311.061 1.2207 311.533 0.959961 312.09 0.772461C312.652 0.579102 313.294 0.482422 314.014 0.482422C314.489 0.482422 314.926 0.538086 315.324 0.649414C315.728 0.760742 316.092 0.918945 316.414 1.12402C316.742 1.32324 317.029 1.56641 317.275 1.85352C317.527 2.13477 317.738 2.44531 317.908 2.78516H318.567V4.29688H316.414ZM321.479 0.675781H325.733V2.19629H324.468V12.4883H325.733V14H321.479V12.4883H322.745V2.19629H321.479V0.675781ZM339.79 14.0527V11.3809C339.568 11.8438 339.289 12.248 338.955 12.5938C338.621 12.9336 338.249 13.2148 337.839 13.4375C337.429 13.6602 336.99 13.8271 336.521 13.9385C336.058 14.0498 335.586 14.1055 335.106 14.1055C334.239 14.1055 333.439 13.9619 332.706 13.6748C331.974 13.3818 331.309 12.9189 330.711 12.2861C330.119 11.6533 329.665 10.9033 329.349 10.0361C329.038 9.16895 328.883 8.26367 328.883 7.32031C328.883 6.37109 329.038 5.47461 329.349 4.63086C329.665 3.78711 330.105 3.05176 330.667 2.4248C331.236 1.79785 331.909 1.30566 332.689 0.948242C333.474 0.59082 334.323 0.412109 335.238 0.412109C336.081 0.412109 336.805 0.532227 337.408 0.772461C338.018 1.0127 338.536 1.30566 338.964 1.65137C339.398 1.99121 339.743 2.31641 340.001 2.62695H340.854V4.19141H338.964C338.572 3.52344 338.05 2.99609 337.4 2.60938C336.755 2.22266 336.031 2.03516 335.229 2.04688C334.555 2.04688 333.937 2.19043 333.374 2.47754C332.812 2.76465 332.328 3.15137 331.924 3.6377C331.526 4.12402 331.215 4.68359 330.992 5.31641C330.77 5.94922 330.658 6.61719 330.658 7.32031C330.658 8.09961 330.781 8.82324 331.028 9.49121C331.274 10.1592 331.587 10.7012 331.968 11.1172C332.349 11.5332 332.818 11.8789 333.374 12.1543C333.937 12.4238 334.558 12.5586 335.238 12.5586C336.363 12.5586 337.285 12.2861 338.006 11.7412C338.727 11.1904 339.231 10.335 339.518 9.1748H335.791V7.66309H341.425V14.0527H339.79ZM353.812 0.675781H358.136V2.19629H357.002V14H354.752L348.556 2.95215V12.4883H349.927V14H345.603V12.4883H346.833V2.19629H345.568V0.658203H349.154L355.236 11.6006L355.306 11.1787V2.19629H353.812V0.675781ZM373.128 4.29688C373.128 3.78125 373.034 3.39453 372.847 3.13672C372.659 2.87891 372.451 2.68262 372.223 2.54785C372 2.40723 371.754 2.30176 371.484 2.23145C371.215 2.15527 370.945 2.11719 370.676 2.11719C370.23 2.11719 369.841 2.16992 369.507 2.27539C369.173 2.375 368.895 2.5127 368.672 2.68848C368.455 2.86426 368.291 3.06934 368.18 3.30371C368.068 3.53809 368.013 3.78418 368.013 4.04199C368.013 4.42871 368.08 4.74219 368.215 4.98242C368.355 5.2168 368.531 5.40723 368.742 5.55371C368.953 5.69434 369.185 5.80566 369.436 5.8877C369.694 5.96973 369.94 6.05176 370.175 6.13379L371.95 6.71387C372.483 6.88379 372.952 7.07715 373.356 7.29395C373.767 7.51074 374.109 7.76855 374.385 8.06738C374.66 8.36035 374.868 8.7002 375.009 9.08691C375.155 9.47363 375.228 9.92188 375.228 10.4316C375.228 10.9824 375.114 11.4922 374.886 11.9609C374.663 12.4297 374.35 12.8369 373.945 13.1826C373.541 13.5283 373.058 13.8008 372.495 14C371.938 14.1934 371.326 14.29 370.658 14.29C369.973 14.29 369.387 14.2109 368.9 14.0527C368.414 13.9004 368.004 13.6953 367.67 13.4375C367.342 13.1738 367.078 12.875 366.879 12.541C366.68 12.207 366.524 11.8643 366.413 11.5127H365.745V10.001H367.96C367.96 10.6514 368.027 11.1113 368.162 11.3809C368.303 11.6504 368.496 11.876 368.742 12.0576C368.988 12.2334 369.281 12.3682 369.621 12.4619C369.961 12.5498 370.336 12.5938 370.746 12.5938C371.145 12.5938 371.502 12.5469 371.818 12.4531C372.141 12.3594 372.413 12.2246 372.636 12.0488C372.864 11.8672 373.037 11.6504 373.154 11.3984C373.277 11.1406 373.339 10.8506 373.339 10.5283C373.339 10.1709 373.263 9.86914 373.11 9.62305C372.964 9.37109 372.773 9.15723 372.539 8.98145C372.305 8.80566 372.047 8.66211 371.766 8.55078C371.49 8.43945 371.224 8.34277 370.966 8.26074L369.041 7.71582C368.619 7.58691 368.232 7.42285 367.881 7.22363C367.535 7.02441 367.236 6.78125 366.984 6.49414C366.738 6.20703 366.548 5.87305 366.413 5.49219C366.278 5.10547 366.211 4.66016 366.211 4.15625C366.211 3.64648 366.311 3.16895 366.51 2.72363C366.709 2.27832 367.002 1.88867 367.389 1.55469C367.775 1.2207 368.247 0.959961 368.804 0.772461C369.366 0.579102 370.008 0.482422 370.728 0.482422C371.203 0.482422 371.64 0.538086 372.038 0.649414C372.442 0.760742 372.806 0.918945 373.128 1.12402C373.456 1.32324 373.743 1.56641 373.989 1.85352C374.241 2.13477 374.452 2.44531 374.622 2.78516H375.281V4.29688H373.128ZM380.918 12.4883H382.14V2.11719H379.099V4.19141H377.297V0.675781H389.18V4.19141H387.378V2.11719H383.862V12.4883H385.234V14H380.918V12.4883ZM391.793 0.675781H396.109V2.19629H394.747V8.40137C394.747 9.14551 394.829 9.78125 394.993 10.3086C395.163 10.8301 395.394 11.2578 395.687 11.5918C395.986 11.9199 396.337 12.1602 396.742 12.3125C397.152 12.4648 397.6 12.541 398.086 12.541C398.59 12.541 399.053 12.4736 399.475 12.3389C399.897 12.2041 400.257 11.9785 400.556 11.6621C400.861 11.3398 401.095 10.915 401.259 10.3877C401.429 9.85449 401.514 9.19238 401.514 8.40137V2.19629H400.073V0.675781H404.388V2.19629H403.202V8.20801C403.202 9.16895 403.067 10.0215 402.797 10.7656C402.534 11.5098 402.17 12.1338 401.707 12.6377C401.245 13.1416 400.7 13.5254 400.073 13.7891C399.446 14.0469 398.772 14.1758 398.051 14.1758C397.348 14.1758 396.689 14.0469 396.074 13.7891C395.464 13.5312 394.931 13.1533 394.474 12.6553C394.023 12.1572 393.665 11.5508 393.402 10.8359C393.144 10.1152 393.015 9.29199 393.015 8.36621V2.19629H391.793V0.675781ZM406.94 0.675781H411.897C412.507 0.675781 413.087 0.754883 413.637 0.913086C414.188 1.07129 414.701 1.29395 415.175 1.58105C415.65 1.86816 416.081 2.21387 416.467 2.61816C416.854 3.0166 417.182 3.46191 417.452 3.9541C417.727 4.44629 417.938 4.97656 418.085 5.54492C418.231 6.10742 418.304 6.69336 418.304 7.30273C418.304 7.92383 418.231 8.51855 418.085 9.08691C417.938 9.65527 417.727 10.1885 417.452 10.6865C417.182 11.1846 416.854 11.6387 416.467 12.0488C416.081 12.4531 415.65 12.8018 415.175 13.0947C414.701 13.3818 414.188 13.6045 413.637 13.7627C413.087 13.9209 412.507 14 411.897 14H406.94V12.4883H408.206V2.19629H406.94V0.675781ZM409.928 2.19629V12.4883H412.003C412.618 12.4883 413.195 12.3535 413.734 12.084C414.279 11.8145 414.754 11.4482 415.158 10.9854C415.562 10.5166 415.882 9.96875 416.116 9.3418C416.35 8.70898 416.467 8.0293 416.467 7.30273C416.467 6.58789 416.35 5.91992 416.116 5.29883C415.882 4.67773 415.562 4.13867 415.158 3.68164C414.754 3.21875 414.279 2.85547 413.734 2.5918C413.195 2.32812 412.618 2.19629 412.003 2.19629H409.928ZM421.454 0.675781H425.708V2.19629H424.442V12.4883H425.708V14H421.454V12.4883H422.72V2.19629H421.454V0.675781ZM435.247 14.2637C434.327 14.2637 433.486 14.0938 432.725 13.7539C431.963 13.4082 431.283 12.9189 430.686 12.2861C430.088 11.6533 429.634 10.9033 429.323 10.0361C429.013 9.16895 428.858 8.26953 428.858 7.33789C428.858 6.37695 429.013 5.47461 429.323 4.63086C429.64 3.78711 430.079 3.05469 430.642 2.43359C431.21 1.80664 431.884 1.31445 432.663 0.957031C433.448 0.59375 434.31 0.412109 435.247 0.412109C436.191 0.412109 437.055 0.59375 437.84 0.957031C438.625 1.31445 439.299 1.80664 439.861 2.43359C440.424 3.05469 440.861 3.78711 441.171 4.63086C441.482 5.47461 441.637 6.37695 441.637 7.33789C441.637 8.29883 441.479 9.20117 441.162 10.0449C440.852 10.8828 440.412 11.6152 439.844 12.2422C439.281 12.8691 438.608 13.3643 437.822 13.7275C437.043 14.085 436.185 14.2637 435.247 14.2637ZM435.247 12.6289C435.944 12.6289 436.574 12.4854 437.137 12.1982C437.705 11.9111 438.189 11.5273 438.587 11.0469C438.986 10.5605 439.293 9.99805 439.51 9.35938C439.727 8.7207 439.835 8.04688 439.835 7.33789C439.835 6.61133 439.715 5.91113 439.475 5.2373C439.24 4.55762 438.909 3.9834 438.482 3.51465C438.06 3.0459 437.568 2.68555 437.005 2.43359C436.443 2.17578 435.857 2.04688 435.247 2.04688C434.55 2.04688 433.917 2.19043 433.349 2.47754C432.78 2.76465 432.297 3.15137 431.899 3.6377C431.5 4.11816 431.193 4.68066 430.976 5.3252C430.759 5.96387 430.651 6.63477 430.651 7.33789C430.651 8.1582 430.771 8.89062 431.011 9.53516C431.251 10.1738 431.568 10.707 431.96 11.1348C432.359 11.5566 432.83 11.9111 433.375 12.1982C433.926 12.4854 434.55 12.6289 435.247 12.6289Z" fill="white"/>
<path d="M124.809 14.0527L122.735 12.0488C122.488 12.3535 122.222 12.6318 121.935 12.8838C121.648 13.1357 121.34 13.3555 121.012 13.543C120.69 13.7246 120.344 13.8682 119.975 13.9736C119.611 14.0732 119.225 14.123 118.815 14.123C118.246 14.123 117.713 14.0234 117.215 13.8242C116.723 13.625 116.292 13.3525 115.923 13.0068C115.56 12.6611 115.273 12.2539 115.062 11.7852C114.851 11.3105 114.745 10.8008 114.745 10.2559C114.745 9.89844 114.798 9.55273 114.903 9.21875C115.015 8.87891 115.164 8.5625 115.352 8.26953C115.545 7.97656 115.768 7.71289 116.02 7.47852C116.277 7.24414 116.676 6.98926 117.215 6.71387L116.635 6.15137C116.483 6.01074 116.333 5.84961 116.187 5.66797C116.046 5.48633 115.92 5.29004 115.809 5.0791C115.703 4.86816 115.615 4.64844 115.545 4.41992C115.481 4.19141 115.448 3.96582 115.448 3.74316C115.448 3.27441 115.539 2.83789 115.721 2.43359C115.902 2.0293 116.149 1.67773 116.459 1.37891C116.776 1.08008 117.145 0.845703 117.567 0.675781C117.988 0.5 118.44 0.412109 118.92 0.412109C119.43 0.412109 119.902 0.50293 120.335 0.68457C120.775 0.866211 121.152 1.10937 121.469 1.41406C121.785 1.71875 122.034 2.07324 122.216 2.47754C122.398 2.88184 122.488 3.30371 122.488 3.74316C122.488 4.09473 122.453 4.40527 122.383 4.6748C122.313 4.93848 122.213 5.17578 122.084 5.38672C121.955 5.59766 121.8 5.79102 121.618 5.9668C121.443 6.13672 121.252 6.29492 121.047 6.44141C120.848 6.58789 120.643 6.72266 120.432 6.8457C120.221 6.96289 120.004 7.07715 119.781 7.18848L122.471 9.69336C122.658 9.26562 122.808 8.84375 122.919 8.42773C123.036 8.00586 123.127 7.625 123.192 7.28516H124.844C124.744 7.83594 124.592 8.40723 124.387 8.99902C124.182 9.59082 123.921 10.1709 123.605 10.7393L126.03 12.9893L124.809 14.0527ZM117.646 8.14648C117.446 8.22852 117.265 8.34277 117.101 8.48926C116.943 8.62988 116.805 8.79395 116.688 8.98145C116.57 9.16309 116.48 9.3623 116.415 9.5791C116.351 9.79004 116.319 10.0039 116.319 10.2207C116.319 10.5605 116.383 10.877 116.512 11.1699C116.647 11.457 116.828 11.7061 117.057 11.917C117.291 12.1279 117.564 12.2949 117.874 12.418C118.191 12.5352 118.527 12.5938 118.885 12.5938C119.19 12.5938 119.477 12.5557 119.746 12.4795C120.016 12.4033 120.268 12.2979 120.502 12.1631C120.736 12.0225 120.95 11.8584 121.144 11.6709C121.343 11.4775 121.527 11.2695 121.697 11.0469L118.358 7.82129L117.646 8.14648ZM120.379 4.98242C120.531 4.81836 120.66 4.63086 120.766 4.41992C120.871 4.20312 120.924 3.97754 120.924 3.74316C120.924 3.49707 120.868 3.25977 120.757 3.03125C120.652 2.80273 120.508 2.60059 120.326 2.4248C120.145 2.24902 119.931 2.11133 119.685 2.01172C119.444 1.90625 119.19 1.85352 118.92 1.85352C118.627 1.85352 118.361 1.90332 118.12 2.00293C117.886 2.09668 117.684 2.22852 117.514 2.39844C117.344 2.56836 117.212 2.76758 117.118 2.99609C117.025 3.21875 116.978 3.46191 116.978 3.72559C116.978 3.97168 117.036 4.23242 117.153 4.50781C117.277 4.77734 117.496 5.06152 117.813 5.36035L118.595 6.08984C118.941 5.9375 119.266 5.77344 119.57 5.59766C119.875 5.42188 120.145 5.2168 120.379 4.98242Z" fill="#E20202"/>
</svg>
