<svg width="11" height="10" viewBox="0 0 11 10" fill="none" xmlns="http://www.w3.org/2000/svg">
<path d="M8.06242 1.02474C7.37551 0.363941 6.42491 0 5.38572 0C3.79832 0 2.82199 0.652056 2.2825 1.19903C1.6176 1.87312 1.23633 2.76817 1.23633 3.65473C1.23633 4.76788 1.70096 5.62225 2.47905 5.94011C2.53129 5.96155 2.58385 5.97236 2.63538 5.97236C2.79953 5.97236 2.92959 5.86473 2.97465 5.69208C3.00092 5.59303 3.06178 5.34869 3.08824 5.24261C3.14488 5.03312 3.09911 4.93237 2.97559 4.78649C2.75054 4.51966 2.64574 4.20413 2.64574 3.79348C2.64574 2.57375 3.5521 1.27741 5.23194 1.27741C6.56482 1.27741 7.3928 2.03654 7.3928 3.25854C7.3928 4.02967 7.22704 4.74381 6.92597 5.2695C6.71677 5.63477 6.34888 6.07018 5.78412 6.07018C5.53989 6.07018 5.32051 5.96965 5.18208 5.79439C5.05131 5.6287 5.00822 5.41467 5.06081 5.19161C5.12022 4.93959 5.20123 4.6767 5.27964 4.42254C5.42264 3.95836 5.55782 3.51995 5.55782 3.17017C5.55782 2.57188 5.19077 2.16988 4.64455 2.16988C3.95036 2.16988 3.40652 2.87641 3.40652 3.77836C3.40652 4.22071 3.52384 4.55156 3.57694 4.6786C3.4895 5.04989 2.96976 7.25731 2.87117 7.67357C2.81417 7.91656 2.47078 9.83577 3.03915 9.98881C3.67775 10.1607 4.24857 8.29156 4.30666 8.08034C4.35375 7.90856 4.51851 7.25902 4.61948 6.85973C4.92775 7.1573 5.42412 7.35846 5.9071 7.35846C6.81761 7.35846 7.63644 6.94788 8.2128 6.20242C8.77177 5.47937 9.07962 4.4716 9.07962 3.36488C9.07962 2.49966 8.70884 1.6467 8.06242 1.02474Z" fill="white" fill-opacity="0.4"/>
</svg>
