<svg width="11" height="9" viewBox="0 0 11 9" fill="none" xmlns="http://www.w3.org/2000/svg">
<g clip-path="url(#clip0)">
<path d="M10.1415 0.872624C10.0193 0.393987 9.58523 0.0408615 9.06265 -0.0118146C7.82518 -0.136398 6.57266 -0.137048 5.32592 -0.136398C4.07897 -0.137048 2.82625 -0.136398 1.58878 -0.0118146C1.06651 0.0408615 0.632728 0.393987 0.510557 0.872624C0.336674 1.55426 0.334717 2.29832 0.334717 3.00011C0.334717 3.7019 0.334717 4.44587 0.5086 5.12741C0.630565 5.60595 1.06445 5.95908 1.58702 6.01185C2.82439 6.13652 4.07701 6.13717 5.32396 6.13652C6.57112 6.13717 7.82342 6.13652 9.06069 6.01185C9.58296 5.95917 10.0172 5.60604 10.1393 5.12741C10.3133 4.44578 10.3139 3.70181 10.3139 3.00011C10.3139 2.29832 10.3154 1.55426 10.1415 0.872624ZM4.03653 4.397C4.03653 3.40145 4.03653 2.4163 4.03653 1.42066C5.09414 1.91834 6.14475 2.41268 7.20907 2.91343C6.14805 3.40972 5.09692 3.90108 4.03653 4.397Z" fill="white" fill-opacity="0.4"/>
</g>
<defs>
<clipPath id="clip0">
<rect x="0.334717" width="9.97921" height="9" fill="white"/>
</clipPath>
</defs>
</svg>
